<?xml version="1.0" encoding="UTF-8" standalone="no"?>
<svg
   width="24px"
   height="24px"
   stroke-width="1.5"
   viewBox="0 0 24 24"
   fill="none"
   color="#000000"
   version="1.1"
   id="svg3"
   sodipodi:docname="file-save-all.svg"
   inkscape:version="1.4.2 (f4327f4, 2025-05-13)"
   xmlns:inkscape="http://www.inkscape.org/namespaces/inkscape"
   xmlns:sodipodi="http://sodipodi.sourceforge.net/DTD/sodipodi-0.dtd"
   xmlns="http://www.w3.org/2000/svg"
   xmlns:svg="http://www.w3.org/2000/svg">
  <defs
     id="defs3" />
  <sodipodi:namedview
     id="namedview3"
     pagecolor="#ffffff"
     bordercolor="#000000"
     borderopacity="0.25"
     inkscape:showpageshadow="2"
     inkscape:pageopacity="0.0"
     inkscape:pagecheckerboard="0"
     inkscape:deskcolor="#d1d1d1"
     inkscape:zoom="22.627417"
     inkscape:cx="10.363534"
     inkscape:cy="13.015184"
     inkscape:window-width="1538"
     inkscape:window-height="877"
     inkscape:window-x="54"
     inkscape:window-y="-8"
     inkscape:window-maximized="1"
     inkscape:current-layer="layer1" />
  <g
     inkscape:groupmode="layer"
     id="layer1"
     inkscape:label="Layer 1"
     style="display:inline">
    <path
       id="path2"
       style="fill:none;fill-opacity:1;stroke:#000000;stroke-opacity:1"
       d="M 7.4327354 7.482558 L 7.4327354 4.44151 C 7.4327354 3.594736 8.1191807 2.9082907 8.9659543 2.9082907 L 17.530212 2.9082907 C 17.936821 2.9082907 18.326796 3.069823 18.614351 3.357363 L 20.782629 5.5256571 C 21.070185 5.8131971 21.23171 6.2031714 21.23171 6.6098118 L 21.23171 15.174046 C 21.23171 16.020842 20.545287 16.707264 19.69849 16.707264 L 16.532441 16.707264 " />
    <path
       id="path8"
       style="fill:none;fill-opacity:1;stroke:#000000;stroke-opacity:1"
       d="M 14.651562 7.5079491 L 16.938696 7.5079487 C 17.192749 7.5079487 17.398661 7.3020143 17.398661 7.0479829 L 17.398661 3.3682565 C 17.398661 3.114225 17.192749 2.9082907 16.938696 2.9082907 L 11.725749 2.9082907 C 11.471718 2.9082907 11.265784 3.114225 11.265784 3.3682565 L 11.265784 6.6827448 " />
    <path
       id="path9"
       style="fill:none;fill-opacity:1;stroke:#000000;stroke-opacity:1"
       d="m 13.78,7.5079489 1.177747,2e-7" />
    <path
       id="path9-2"
       style="display:inline;fill:none;fill-opacity:1;stroke:#000000;stroke-width:1.00233;stroke-opacity:1"
       d="m 13.37565,7.259165 0.525883,2e-7" />
    <path
       id="path7"
       style="fill:none;fill-opacity:1;stroke:#000000;stroke-opacity:1"
       d="M 16.463105 16.707264 L 18.931881 16.707264 L 18.931881 11.034353 C 18.931881 10.780299 18.725969 10.574387 18.471914 10.574387 L 16.462127 10.574387 " />
  </g>
  <g
     inkscape:groupmode="layer"
     id="layer2"
     inkscape:label="Layer 2"
     style="display:inline">
    <path
       d="M 2.7835043,19.607892 V 8.798775 c 0,-0.8528162 0.6913434,-1.5441596 1.5441595,-1.5441596 H 12.95303 c 0.409511,0 0.802268,0.162685 1.091876,0.4522766 l 2.18375,2.1837659 c 0.289607,0.2895921 0.452285,0.6823491 0.452285,1.0918911 v 8.625343 c 0,0.85284 -0.691322,1.54416 -1.54416,1.54416 H 4.3276638 c -0.8528161,0 -1.5441595,-0.69132 -1.5441595,-1.54416 z"
       stroke="#000000"
       stroke-width="1.15812"
       id="path1-1"
       style="fill:none;fill-opacity:1;stroke:#000000;stroke-opacity:1" />
    <path
       d="m 7.1071507,11.887094 h 5.2501433 c 0.255866,0 0.463247,-0.207404 0.463247,-0.463248 V 7.7178633 c 0,-0.255844 -0.207381,-0.4632479 -0.463247,-0.4632479 H 7.1071507 c -0.255844,0 -0.463248,0.2074039 -0.463248,0.4632479 v 3.7059827 c 0,0.255844 0.207404,0.463248 0.463248,0.463248 z"
       stroke="#000000"
       stroke-width="1.15812"
       id="path2-42"
       style="fill:none;fill-opacity:1;stroke:#000000;stroke-opacity:1" />
    <path
       d="m 5.0997437,15.438662 v 5.71339 h 9.2649573 v -5.71339 c 0,-0.255868 -0.207381,-0.463249 -0.463248,-0.463249 H 5.5629917 c -0.255845,0 -0.463248,0.207381 -0.463248,0.463249 z"
       stroke="#000000"
       stroke-width="1.15812"
       id="path3-3"
       style="display:inline;fill:none;fill-opacity:1;stroke:#000000;stroke-opacity:1" />
  </g>
</svg>
