<?xml version="1.0" encoding="UTF-8" standalone="no"?>
<svg
   width="24px"
   height="24px"
   viewBox="0 0 24 24"
   fill="none"
   color="#000000"
   stroke-width="1.5"
   version="1.1"
   id="svg2"
   sodipodi:docname="pause-solid.svg"
   inkscape:version="1.4.2 (f4327f4, 2025-05-13)"
   xmlns:inkscape="http://www.inkscape.org/namespaces/inkscape"
   xmlns:sodipodi="http://sodipodi.sourceforge.net/DTD/sodipodi-0.dtd"
   xmlns="http://www.w3.org/2000/svg"
   xmlns:svg="http://www.w3.org/2000/svg">
  <defs
     id="defs2" />
  <sodipodi:namedview
     id="namedview2"
     pagecolor="#ffffff"
     bordercolor="#000000"
     borderopacity="0.25"
     inkscape:showpageshadow="2"
     inkscape:pageopacity="0.0"
     inkscape:pagecheckerboard="0"
     inkscape:deskcolor="#d1d1d1"
     inkscape:zoom="22.627417"
     inkscape:cx="17.213631"
     inkscape:cy="9.921592"
     inkscape:window-width="1538"
     inkscape:window-height="877"
     inkscape:window-x="54"
     inkscape:window-y="-8"
     inkscape:window-maximized="1"
     inkscape:current-layer="svg2" />
  <path
     d="M6 18.4V5.6C6 5.26863 6.26863 5 6.6 5H9.4C9.73137 5 10 5.26863 10 5.6V18.4C10 18.7314 9.73137 19 9.4 19H6.6C6.26863 19 6 18.7314 6 18.4Z"
     fill="#000000"
     stroke="#000000"
     stroke-width="1.5"
     id="path1" />
  <path
     d="M 7.83119,18.120171 V 5.8798296 c 0,-0.3168814 0.5569663,-0.573766 1.2440133,-0.573766 h 5.8053977 c 0.687049,0 1.244014,0.2568846 1.244014,0.573766 V 18.120171 c 0,0.316909 -0.556965,0.573765 -1.244014,0.573765 H 9.0752033 c -0.687047,0 -1.2440133,-0.256856 -1.2440133,-0.573765 z"
     fill="#000000"
     stroke="#000000"
     stroke-width="2.11213"
     id="path1-9" />
  <path
     d="M14 18.4V5.6C14 5.26863 14.2686 5 14.6 5H17.4C17.7314 5 18 5.26863 18 5.6V18.4C18 18.7314 17.7314 19 17.4 19H14.6C14.2686 19 14 18.7314 14 18.4Z"
     fill="#000000"
     stroke="#000000"
     stroke-width="1.5"
     id="path2" />
</svg>
